<?xml version="1.0" encoding="UTF-8"?>
<svg width="1024px" height="1024px" viewBox="0 0 1024 1024" version="1.1" xmlns="http://www.w3.org/2000/svg" xmlns:xlink="http://www.w3.org/1999/xlink">
    <title>Surf Books Logo-Favicon</title>
    <defs>
        <radialGradient cx="50%" cy="36.3865526%" fx="50%" fy="36.3865526%" r="50%" id="radialGradient-1">
            <stop stop-color="#E7FBFE" offset="0%"></stop>
            <stop stop-color="#C6F1F6" offset="100%"></stop>
        </radialGradient>
        <radialGradient cx="98.1097771%" cy="16.7646494%" fx="98.1097771%" fy="16.7646494%" r="258.82931%" gradientTransform="translate(0.9811, 0.1676), scale(0.3939, 1), rotate(164.2074), translate(-0.9811, -0.1676)" id="radialGradient-2">
            <stop stop-color="#60D6EA" offset="0%"></stop>
            <stop stop-color="#12819D" offset="100%"></stop>
        </radialGradient>
        <radialGradient cx="100%" cy="33.7490011%" fx="100%" fy="33.7490011%" r="249.189822%" gradientTransform="translate(1, 0.3375), scale(0.3595, 1), rotate(167.8869), translate(-1, -0.3375)" id="radialGradient-3">
            <stop stop-color="#62DDED" offset="0%"></stop>
            <stop stop-color="#0D6C92" offset="99.9750107%"></stop>
            <stop stop-color="#0D6C92" offset="100%"></stop>
        </radialGradient>
        <radialGradient cx="81.9404629%" cy="-18.0922546%" fx="81.9404629%" fy="-18.0922546%" r="186.071895%" gradientTransform="translate(0.8194, -0.1809), scale(0.41, 1), rotate(141.8679), translate(-0.8194, 0.1809)" id="radialGradient-4">
            <stop stop-color="#62DDED" offset="0%"></stop>
            <stop stop-color="#0D6C92" offset="100%"></stop>
        </radialGradient>
        <radialGradient cx="47.0586913%" cy="-8.15663488%" fx="47.0586913%" fy="-8.15663488%" r="85.9090458%" gradientTransform="translate(0.4706, -0.0816), scale(0.6698, 1), rotate(137.3938), translate(-0.4706, 0.0816)" id="radialGradient-5">
            <stop stop-color="#8CE7E2" offset="0%"></stop>
            <stop stop-color="#8CE7E2" offset="29.5101007%"></stop>
            <stop stop-color="#0E7C96" offset="100%"></stop>
        </radialGradient>
        <radialGradient cx="40.6117987%" cy="94.4712969%" fx="40.6117987%" fy="94.4712969%" r="171.839434%" gradientTransform="translate(0.4061, 0.9447), scale(0.4731, 1), rotate(-51.1489), translate(-0.4061, -0.9447)" id="radialGradient-6">
            <stop stop-color="#065D7B" offset="0%"></stop>
            <stop stop-color="#087386" offset="47.7573208%"></stop>
            <stop stop-color="#0B9296" offset="88.7073864%"></stop>
            <stop stop-color="#0B9296" offset="100%"></stop>
        </radialGradient>
        <radialGradient cx="100%" cy="-31.9281345%" fx="100%" fy="-31.9281345%" r="206.895093%" gradientTransform="translate(1, -0.3193), scale(0.4278, 1), rotate(147.302), translate(-1, 0.3193)" id="radialGradient-7">
            <stop stop-color="#55C2C3" offset="0%"></stop>
            <stop stop-color="#51BEC0" offset="17.1168291%"></stop>
            <stop stop-color="#299BAA" offset="59.8666958%"></stop>
            <stop stop-color="#1D96A1" offset="100%"></stop>
        </radialGradient>
        <radialGradient cx="87.5727378%" cy="5.2093892%" fx="87.5727378%" fy="5.2093892%" r="188.041773%" gradientTransform="translate(0.8757, 0.0521), scale(0.4158, 1), rotate(153.1312), translate(-0.8757, -0.0521)" id="radialGradient-8">
            <stop stop-color="#67D0D3" offset="0%"></stop>
            <stop stop-color="#67CDD0" offset="17.6710009%"></stop>
            <stop stop-color="#2E9DAC" offset="100%"></stop>
        </radialGradient>
        <radialGradient cx="6.71908653%" cy="69.7270458%" fx="6.71908653%" fy="69.7270458%" r="135.446074%" gradientTransform="translate(0.0672, 0.6973), scale(0.5026, 1), rotate(-10.2879), translate(-0.0672, -0.6973)" id="radialGradient-9">
            <stop stop-color="#1D96A1" offset="0%"></stop>
            <stop stop-color="#11698F" offset="100%"></stop>
        </radialGradient>
        <radialGradient cx="94.3198901%" cy="26.0248491%" fx="94.3198901%" fy="26.0248491%" r="187.02806%" gradientTransform="translate(0.9432, 0.2602), scale(0.4487, 1), rotate(164.8126), translate(-0.9432, -0.2602)" id="radialGradient-10">
            <stop stop-color="#2FBAB7" offset="0%"></stop>
            <stop stop-color="#128A9C" offset="49.9592611%"></stop>
            <stop stop-color="#10869A" offset="100%"></stop>
        </radialGradient>
        <radialGradient cx="67.9108382%" cy="30.1711891%" fx="67.9108382%" fy="30.1711891%" r="119.484801%" gradientTransform="translate(0.6791, 0.3017), scale(0.54, 1), rotate(174.0432), translate(-0.6791, -0.3017)" id="radialGradient-11">
            <stop stop-color="#79E1E0" offset="0%"></stop>
            <stop stop-color="#79E1E0" offset="14.8792614%"></stop>
            <stop stop-color="#359EAD" offset="57.888986%"></stop>
            <stop stop-color="#09738C" offset="100%"></stop>
        </radialGradient>
        <radialGradient cx="44.1835026%" cy="7.23356067%" fx="44.1835026%" fy="7.23356067%" r="113.504222%" gradientTransform="translate(0.4418, 0.0723), scale(0.3496, 1), rotate(167.2765), translate(-0.4418, -0.0723)" id="radialGradient-12">
            <stop stop-color="#0E8896" offset="0%"></stop>
            <stop stop-color="#0E8896" offset="18.9767264%"></stop>
            <stop stop-color="#076F8B" offset="100%"></stop>
        </radialGradient>
        <radialGradient cx="94.3654953%" cy="-14.5936464%" fx="94.3654953%" fy="-14.5936464%" r="236.871595%" gradientTransform="translate(0.9437, -0.1459), scale(0.2823, 1), rotate(171.5472), translate(-0.9437, 0.1459)" id="radialGradient-13">
            <stop stop-color="#099396" offset="0%"></stop>
            <stop stop-color="#099396" offset="11.0822771%"></stop>
            <stop stop-color="#075175" offset="100%"></stop>
        </radialGradient>
        <radialGradient cx="19.6399274%" cy="1.59772877e-13%" fx="19.6399274%" fy="1.59772877e-13%" r="306.233475%" gradientTransform="translate(0.1964, 0), scale(0.2776, 1), rotate(19.0594), translate(-0.1964, -0)" id="radialGradient-14">
            <stop stop-color="#0B6F89" offset="0%"></stop>
            <stop stop-color="#087084" offset="63.3205611%"></stop>
            <stop stop-color="#087688" offset="100%"></stop>
        </radialGradient>
    </defs>
    <g id="Surf-Books-Logo-Favicon" stroke="none" fill="none" fill-rule="evenodd">
        <rect id="Rectangle-2" fill="url(#radialGradient-1)" x="0" y="0" width="1024" height="1024" rx="267"></rect>
        <g id="Group" stroke-width="1" transform="translate(-14.301, 161.9551)">
            <g transform="translate(1.44, 0)" id="Path">
                <path d="M735.227036,65.8440433 C752.073397,95.6525609 754.767714,109.266111 743.060683,118.561438 C731.353652,127.856765 705.720029,102.312078 670.379787,98.3328574 C635.039545,94.3536365 576.059963,126.785875 576.059963,188.59913 C576.059963,250.412385 620.19509,298.551433 679.273803,308.234204 C737.761729,317.820148 783.115956,281.77312 828.581608,242.189583 L829.959403,240.989042 C875.887943,200.937843 897.288841,187.18018 946.699762,170.581467 C975.753009,160.82155 1005.8069,159.669769 1036.86144,167.126124 L1036.86144,426.936871 L12.861,425.597871 L12.861,211.935372 C40.8185985,230.082976 72.2708196,239.767533 107.217839,240.989042 C167.836946,243.107873 244.778922,187.871055 326.251015,110.737584 C407.723107,33.6041134 474.193697,4.83951396 565.640413,0.565848433 C657.087129,-3.70781709 718.380674,36.0355258 735.227036,65.8440433 Z" fill="#68DADB"></path>
                <path d="M734.168616,64.0530971 L734.708325,64.9468613 L735.041344,65.5185874 C717.934144,35.8168232 656.754327,5.94110382 565.640413,10.1992162 C474.193697,14.4728818 407.723107,61.6539878 326.251015,138.787459 C298.36097,165.192279 274.579007,193.41616 248.172942,215.677422 C197.441898,258.445517 146.755556,286.073494 106.887967,284.679995 C71.975805,283.459704 40.6335349,275.360614 12.8611567,260.382726 L12.8611567,211.935372 C40.8185985,230.082976 72.2708196,239.767533 107.217839,240.989042 C167.836946,243.107873 244.778922,187.871055 326.251015,110.737584 C407.723107,33.6041134 474.193697,4.83951396 565.640413,0.565848433 C655.267339,-3.62277115 715.92925,34.4711719 734.168616,64.0530971 Z" fill="url(#radialGradient-2)"></path>
                <path d="M739.847185,120.191813 C727.009762,123.745295 702.772195,101.98016 670.379787,98.3328574 C635.039545,94.3536365 576.059963,126.785875 576.059963,188.59913 C576.059963,250.412385 620.19509,298.551433 679.273803,308.234204 C736.591971,317.628429 781.296534,283.196748 825.853697,244.560014 L832.686102,238.61729 C876.755183,200.3864 898.27706,186.848206 946.699762,170.581467 C975.753009,160.82155 1005.8069,159.669769 1036.86144,167.126124 L1036.86144,426.936871 L12.861,425.597871 L12.861,311.931899 L16.4687486,311.867151 C75.1492582,310.761183 122.874536,307.282986 159.644582,301.432562 L162.137062,301.029598 C222.179613,291.166369 313.587764,236.127988 394.462212,160.185677 L399.339914,155.58228 C479.080956,80.4238118 513.963889,64.5995214 603.021119,59.1265356 C685.019523,54.0873477 726.185619,119.159203 739.847185,120.191813 Z" fill="url(#radialGradient-3)"></path>
                <path d="M734.51492,64.6275166 L735.084161,65.5928606 L736.03811,67.286264 C743.76982,81.1043827 748.34971,91.3597582 749.751589,99.3001305 L749.45421,100.417198 C746.893466,109.963856 744.762578,116.011167 743.060683,118.561438 C742.08519,119.335975 741.013002,119.868613 739.846562,120.191986 C726.183946,119.156557 685.017856,54.0874502 603.021119,59.1265356 C513.064322,64.6548041 478.381778,80.7445505 396.909686,157.878021 C315.437594,235.011492 222.786104,291.06674 162.137062,301.029598 C124.300077,307.245103 74.5418556,310.879204 12.8611567,311.931898 L12.8611567,260.382726 C40.6335349,275.360614 71.975805,283.459704 106.887967,284.679995 C146.755556,286.073494 197.441898,258.445517 248.172942,215.677422 C274.579007,193.41616 298.36097,165.192279 326.251015,138.787459 C407.723107,61.6539878 474.193697,14.4728818 565.640413,10.1992162 C655.843188,5.98368495 716.707555,35.2227222 734.51492,64.6275166 L734.51492,64.6275166 Z" fill="url(#radialGradient-4)"></path>
                <path d="M164.188459,379.23009 C142.419421,409.291731 115.633354,435.405123 83.8302564,457.570266 C57.5353889,475.896452 33.8790041,487.294428 12.8611022,491.764194 L12.8611022,410.470187 C30.4452381,417.37214 47.2830601,420.823117 63.3750748,420.823117 C83.3508533,420.823117 116.955315,406.958774 164.188459,379.23009 Z" fill="#0A4F71"></path>
            </g>
            <path d="M1038.30162,176.589397 L1038.30162,595.044871 C1038.30162,742.504899 918.761056,862.044871 771.301028,862.044871 L281.301028,862.044871 C133.840999,862.044871 14.3010277,742.504899 14.3010277,595.044871 L14.3010277,489.627897 C57.0674546,478.060437 99.6822378,449.420819 142.145413,403.709042 C212.053452,328.452762 277.244148,267.103913 348.88326,252.006522 C420.522372,236.909132 462.381351,242.375658 516.24655,272.570633 C570.11175,302.765608 606.328246,384.067896 683.765914,387.696632 C760.429205,391.289081 812.525553,319.397652 844.268417,286.344831 L849.079395,281.371476 C880.378258,248.934978 922.55456,203.494904 969.989044,187.56014 C996.598884,178.621041 1019.36974,174.964127 1038.30162,176.589397 Z" id="Path" fill="url(#radialGradient-5)"></path>
            <g transform="translate(417.5308, 176.2149)" id="Path">
                <path d="M7.36370628,221.533429 C26.4274846,277.694017 47.1824509,318.785695 69.6286052,344.808463 C103.297837,383.842614 190.987394,450.369564 275.94936,441.14293 C360.061706,432.008562 417.127836,387.646951 461.996072,340.805705 L463.351997,339.385548 C508.426066,292.023933 549.401978,272.220896 573.143628,267.313928 C586.110002,264.634014 601.985513,265.476431 620.770218,269.841179 L620.770218,418.829978 C620.770218,423.710492 620.639271,428.560423 620.380699,433.376447 C601.7393,424.260752 577.062009,418.586228 546.34235,416.350612 C488.33454,412.129106 340.63196,526.454606 264.809507,514.346624 L260.265032,513.614888 C186.117396,501.566191 115.793193,484.218504 43.7478489,381.351313 C-5.67375396,310.786566 -5.71177961,257.207489 7.36370628,221.533429 Z" fill="url(#radialGradient-6)"></path>
                <path d="M620.770514,184.399076 L620.770514,269.841179 C601.985513,265.476431 586.110002,264.634014 573.143628,267.313928 C549.639394,272.171826 509.24386,291.629361 464.702976,337.972954 L463.351997,339.385548 C418.277928,386.747163 360.911326,431.916296 275.94936,441.14293 C190.987394,450.369564 103.297837,383.842614 69.6286052,344.808463 C47.1824509,318.785695 26.4274846,277.694017 7.36370628,221.533429 L17.5371435,233.442722 L19.7849622,236.001699 L22.2371744,238.827646 L24.8654624,241.882958 C44.3223774,264.573687 72.3680098,298.603953 99.1488103,317.917157 C132.818042,356.951309 210.899431,403.344659 294.11006,374.729519 C377.320688,346.114378 409.275447,301.818259 455.520053,249.10109 C501.764658,196.383921 545.790434,185.921544 569.532084,181.014576 C582.545954,178.324846 599.304164,179.377186 619.806714,184.171598 L620.770514,184.399076 Z" fill="url(#radialGradient-7)"></path>
                <path d="M620.77095,172.59876 L620.77095,184.39918 C600.214825,179.502899 583.380019,178.32568 570.266529,180.867523 L569.532084,181.014576 L568.083388,181.315954 C544.028515,186.356941 500.839766,197.438264 455.520053,249.10109 L452.762,252.253957 L450.089349,255.323822 C406.664253,305.301921 374.025548,347.247538 294.11006,374.729519 C210.899431,403.344659 132.818042,356.951309 99.1488103,317.917157 L101.841095,319.862992 L109.720674,325.573499 L113.41984,328.238741 L115.815258,329.951424 C154.97478,357.843179 196.072671,381.473041 276.579193,365.414922 C330.83303,354.593258 369.728525,317.746859 408.199224,278.079267 L411.767893,274.39136 L422.756506,262.991039 L426.1923,259.435069 C438.807139,246.401939 451.623865,233.452874 465.159682,221.391499 C516.002955,176.08653 546.50974,170.42302 566.169676,168.075883 L571.757724,167.436445 L573.27627,167.277712 C588.562373,165.763805 600.417698,167.187922 620.77095,172.59876 Z" fill="url(#radialGradient-8)"></path>
                <path d="M620.770329,63.2517028 L620.770329,172.598635 L618.964434,172.123366 C599.052134,166.935268 587.327476,165.725594 571.757724,167.436445 L566.169676,168.075883 L564.976988,168.220982 C545.281334,170.665417 514.98609,176.992629 465.159682,221.391499 C451.623865,233.452874 438.807139,246.401939 426.1923,259.435069 L422.756506,262.991039 L411.767893,274.39136 L408.199224,278.079267 C369.728525,317.746859 330.83303,354.593258 276.579193,365.414922 C190.160603,382.652283 149.151183,354.158588 107.204635,323.751735 L104.525477,321.808695 C102.737928,320.512167 100.946896,319.213862 99.1488103,317.917157 C68.7830602,296.018636 36.7911859,255.199204 17.5371435,233.442722 L7.24176,221.869881 C33.3240914,197.481682 113.976048,225.038965 123.754298,232.047925 C171.404779,254.886253 218.423183,269.077544 264.809507,274.621798 C334.388995,282.938179 413.620158,220.447294 450.135756,172.146967 C486.651354,123.84664 529.776891,82.3275904 552.458235,73.9820237 L555.395599,72.9077585 L558.356879,71.8437443 L560.569601,71.0661285 L562.072049,70.5485139 L563.475614,70.0735602 C580.126968,64.4912776 598.312808,60.3117908 620.770329,63.2517028 Z" fill="url(#radialGradient-9)"></path>
                <path d="M612.116925,-2.84217094e-13 C615.08591,0.00924213504 617.970864,0.134104749 620.771788,0.374587841 L620.771788,63.2516594 C594.62993,59.8297407 574.277334,66.0535056 555.395599,72.9077585 L552.458235,73.9820237 C529.776891,82.3275904 486.651354,123.84664 450.135756,172.146967 C413.620158,220.447294 334.388995,282.938179 264.809507,274.621798 C218.423183,269.077544 171.404779,254.886253 123.754298,232.047925 C113.925102,225.002447 32.657639,196.710589 7.01105258,221.775525 L7.41529997,221.392943 C13.7894144,204.070831 23.2522662,190.981703 31.6350428,182.231229 C57.2816292,155.459694 113.925102,172.648218 123.754298,180.173402 C167.324335,209.451811 208.210645,224.986103 246.413227,226.77628 C284.784322,228.574353 321.867891,207.707332 353.369096,182.231229 C384.617159,159.506347 408.76699,128.879992 426.554524,110.320771 L432.530209,104.138758 L442.201549,94.1022965 L444.91756,91.2979821 C474.424701,60.8983477 511.479288,25.1113894 552.458235,11.3452468 C574.703844,3.87223321 594.266458,0.0908452274 611.146077,-2.84217094e-13 L612.116925,-2.84217094e-13 Z" fill="url(#radialGradient-10)"></path>
            </g>
            <path d="M511.891909,331.617284 C522.352683,338.871972 532.090077,346.54653 541.919273,354.071714 L544.378957,355.949569 C552.07124,361.803683 559.860937,367.537771 568.136277,372.880731 C559.302534,367.978647 550.35193,362.481063 541.285107,356.388295 C531.455911,348.86311 474.812439,331.674587 449.165852,358.446122 C423.519266,385.217657 387.763001,452.599685 461.278658,557.566206 C534.794316,662.532727 604.989238,684.51606 682.340317,690.561517 C759.691395,696.606974 905.86535,588.343999 963.873159,592.565505 C994.592579,594.801104 1019.26972,600.475557 1037.9046,609.588863 C1030.35757,750.286829 913.880541,862.044871 771.301028,862.044871 L281.301028,862.044871 C133.840999,862.044871 14.3010277,742.504899 14.3010277,595.044871 L14.3010277,565.994459 C69.2745149,546.803511 116.679838,518.906791 156.517393,482.3043 C220.763732,423.275175 275.945809,356.323403 335.250007,329.61676 C394.554205,302.910118 468.305355,301.38942 511.891909,331.617284 Z" id="Path" fill="url(#radialGradient-11)"></path>
            <path d="M270.952619,504.515183 C306.545136,507.559168 370.694147,536.184224 431.291975,618.225566 C491.889802,700.266907 597.029059,756.158995 688.732804,736.754894 C780.436548,717.350792 895.33221,603.32758 951.972377,598.079921 C983.135695,595.192668 1016.10274,600.637201 1037.87523,610.102405 C1030.07418,750.558532 913.707119,862.044871 771.301028,862.044871 L281.301028,862.044871 C138.13047,862.044871 21.2792591,749.358354 14.6022267,607.840153 C68.6401208,599.939737 99.873495,588.533447 133.822087,562.954936 L134.85169,562.17548 C171.804807,534.067955 235.360101,501.471199 270.952619,504.515183 Z" id="Path" fill="url(#radialGradient-12)"></path>
            <path d="M274.54588,579.054559 C323.212885,593.469815 356.187069,619.428518 417.530809,682.663721 C478.87455,745.898924 545.158996,767.530354 623.363568,767.530354 C701.56814,767.530354 895.33221,603.32758 951.972377,598.079921 C983.135695,595.192668 1016.10274,600.637201 1037.87523,610.102405 C1030.07418,750.558532 913.707119,862.044871 771.301028,862.044871 L281.301028,862.044871 C149.269066,862.044871 39.6204922,766.210196 18.121722,640.307262 C65.8449189,641.198141 98.9718282,626.376043 132.968353,607.172091 L133.998833,606.588823 C172.111756,584.973829 225.878874,564.639304 274.54588,579.054559 Z" id="Path" fill="url(#radialGradient-13)"></path>
            <path d="M255.043908,649.009186 C298.05294,666.26936 340.233122,722.743512 417.530809,774.152013 C491.73659,823.504174 552.098848,826.869462 625.9995,827.059721 L635.309574,827.070064 C669.869706,827.070064 742.43042,834.481923 852.991718,849.30564 L852.999958,849.313786 C827.250411,857.580783 799.797041,862.044871 771.301028,862.044871 L281.301028,862.044871 C165.373175,862.044871 66.7014457,788.162622 29.8032954,684.915578 C72.134331,680.809289 103.487557,659.384801 135.11614,644.691534 C173.344928,626.932098 212.034876,631.749013 255.043908,649.009186 Z" id="Path" fill="url(#radialGradient-14)"></path>
        </g>
    </g>
</svg>